<svg xmlns="http://www.w3.org/2000/svg" width="340" height="200" viewBox="0 0 340 200"><style>* {
          font-family: 'Segoe UI', Ubuntu, "Helvetica Neue", Sans-Serif
        }</style><rect x="1" y="1" rx="5" ry="5" height="99%" width="99.41176470588235%" stroke="#000000" stroke-width="1" fill="#191724" stroke-opacity="0"></rect><text x="30" y="40" style="font-size: 22px; fill: #9ccfd8;">Top Languages by Commit</text><g transform="translate(0,40)"><g transform="translate(40,0)"><rect y="18" width="14" height="14" fill="#f34b7d" stroke="#191724" style="stroke-width: 1px;"></rect><rect y="43.2" width="14" height="14" fill="#3178c6" stroke="#191724" style="stroke-width: 1px;"></rect><rect y="68.4" width="14" height="14" fill="#dea584" stroke="#191724" style="stroke-width: 1px;"></rect><rect y="93.60000000000002" width="14" height="14" fill="#e34c26" stroke="#191724" style="stroke-width: 1px;"></rect><rect y="118.80000000000001" width="14" height="14" fill="#3572A5" stroke="#191724" style="stroke-width: 1px;"></rect><text x="16.8" y="30" style="fill: #e0def4; font-size: 14px;">C++</text><text x="16.8" y="55.2" style="fill: #e0def4; font-size: 14px;">TypeScript</text><text x="16.8" y="80.4" style="fill: #e0def4; font-size: 14px;">Rust</text><text x="16.8" y="105.60000000000002" style="fill: #e0def4; font-size: 14px;">HTML</text><text x="16.8" y="130.8" style="fill: #e0def4; font-size: 14px;">Python</text></g><g transform="translate( 230, 80 )"><g class="arc"><path d="M3.67394039744206e-15,-60A60,60,0,0,1,21.031763258971544,56.19310397387365L12.268528567733402,32.77931065142629A35,35,0,0,0,2.1431318985078682e-15,-35Z" style="fill: #f34b7d; stroke-width: 2px;" stroke="#191724"></path></g><g class="arc"><path d="M21.031763258971544,56.19310397387365A60,60,0,0,1,-42.843295659130774,-42.005380810847385L-24.991922467826285,-24.50313880632764A35,35,0,0,0,12.268528567733402,32.77931065142629Z" style="fill: #3178c6; stroke-width: 2px;" stroke="#191724"></path></g><g class="arc"><path d="M-42.843295659130774,-42.005380810847385A60,60,0,0,1,-18.796288913791145,-56.979816804455346L-10.964501866378168,-33.23822646926562A35,35,0,0,0,-24.991922467826285,-24.50313880632764Z" style="fill: #dea584; stroke-width: 2px;" stroke="#191724"></path></g><g class="arc"><path d="M-18.796288913791145,-56.979816804455346A60,60,0,0,1,-9.128487631052142,-59.301523703609234L-5.324951118113749,-34.59255549377205A35,35,0,0,0,-10.964501866378168,-33.23822646926562Z" style="fill: #e34c26; stroke-width: 2px;" stroke="#191724"></path></g><g class="arc"><path d="M-9.128487631052142,-59.301523703609234A60,60,0,0,1,4.226888398968133e-14,-60L2.4656848993980778e-14,-35A35,35,0,0,0,-5.324951118113749,-34.59255549377205Z" style="fill: #3572A5; stroke-width: 2px;" stroke="#191724"></path></g></g></g></svg>