<svg xmlns="http://www.w3.org/2000/svg" width="340" height="200" viewBox="0 0 340 200"><style>* {
          font-family: 'Segoe UI', Ubuntu, "Helvetica Neue", Sans-Serif
        }</style><rect x="1" y="1" rx="5" ry="5" height="99%" width="99.41176470588235%" stroke="#0c1a25" stroke-width="1" fill="#09131b" stroke-opacity="1"></rect><text x="30" y="40" style="font-size: 22px; fill: #ff652f;">Top Languages by Commit</text><g transform="translate(0,40)"><g transform="translate(40,0)"><rect y="18" width="14" height="14" fill="#f34b7d" stroke="#09131b" style="stroke-width: 1px;"></rect><rect y="43.2" width="14" height="14" fill="#3178c6" stroke="#09131b" style="stroke-width: 1px;"></rect><rect y="68.4" width="14" height="14" fill="#5e5086" stroke="#09131b" style="stroke-width: 1px;"></rect><rect y="93.60000000000002" width="14" height="14" fill="#555555" stroke="#09131b" style="stroke-width: 1px;"></rect><rect y="118.80000000000001" width="14" height="14" fill="#3572A5" stroke="#09131b" style="stroke-width: 1px;"></rect><text x="16.8" y="30" style="fill: #ffffff; font-size: 14px;">C++</text><text x="16.8" y="55.2" style="fill: #ffffff; font-size: 14px;">TypeScript</text><text x="16.8" y="80.4" style="fill: #ffffff; font-size: 14px;">Haskell</text><text x="16.8" y="105.60000000000002" style="fill: #ffffff; font-size: 14px;">C</text><text x="16.8" y="130.8" style="fill: #ffffff; font-size: 14px;">Python</text></g><g transform="translate( 230, 80 )"><g class="arc"><path d="M3.67394039744206e-15,-60A60,60,0,1,1,-31.855185507368308,50.84532580573313L-18.582191545964847,29.659773386677664A35,35,0,1,0,2.1431318985078682e-15,-35Z" style="fill: #f34b7d; stroke-width: 2px;" stroke="#09131b"></path></g><g class="arc"><path d="M-31.855185507368308,50.84532580573313A60,60,0,0,1,-45.86623759968568,-38.68188527527038L-26.755305266483315,-22.564433077241056A35,35,0,0,0,-18.582191545964847,29.659773386677664Z" style="fill: #3178c6; stroke-width: 2px;" stroke="#09131b"></path></g><g class="arc"><path d="M-45.86623759968568,-38.68188527527038A60,60,0,0,1,-27.16296163127701,-53.499285186044986L-15.845060951578256,-31.207916358526244A35,35,0,0,0,-26.755305266483315,-22.564433077241056Z" style="fill: #5e5086; stroke-width: 2px;" stroke="#09131b"></path></g><g class="arc"><path d="M-27.16296163127701,-53.499285186044986A60,60,0,0,1,-9.761132150974783,-59.200678198236936L-5.693993754735289,-34.53372894897155A35,35,0,0,0,-15.845060951578256,-31.207916358526244Z" style="fill: #555555; stroke-width: 2px;" stroke="#09131b"></path></g><g class="arc"><path d="M-9.761132150974783,-59.200678198236936A60,60,0,0,1,-1.1021821192326178e-14,-60L-6.429395695523604e-15,-35A35,35,0,0,0,-5.693993754735289,-34.53372894897155Z" style="fill: #3572A5; stroke-width: 2px;" stroke="#09131b"></path></g></g></g></svg>