<svg xmlns="http://www.w3.org/2000/svg" width="340" height="200" viewBox="0 0 340 200"><style>* {
          font-family: 'Segoe UI', Ubuntu, "Helvetica Neue", Sans-Serif
        }</style><rect x="1" y="1" rx="5" ry="5" height="99%" width="99.41176470588235%" stroke="#2e343b" stroke-width="1" fill="#0d1117" stroke-opacity="1"></rect><text x="30" y="40" style="font-size: 22px; fill: #0366d6;">Top Languages by Commit</text><g transform="translate(0,40)"><g transform="translate(40,0)"><rect y="18" width="14" height="14" fill="#f34b7d" stroke="#0d1117" style="stroke-width: 1px;"></rect><rect y="43.2" width="14" height="14" fill="#3178c6" stroke="#0d1117" style="stroke-width: 1px;"></rect><rect y="68.4" width="14" height="14" fill="#5e5086" stroke="#0d1117" style="stroke-width: 1px;"></rect><rect y="93.60000000000002" width="14" height="14" fill="#555555" stroke="#0d1117" style="stroke-width: 1px;"></rect><rect y="118.80000000000001" width="14" height="14" fill="#3572A5" stroke="#0d1117" style="stroke-width: 1px;"></rect><text x="16.8" y="30" style="fill: #77909c; font-size: 14px;">C++</text><text x="16.8" y="55.2" style="fill: #77909c; font-size: 14px;">TypeScript</text><text x="16.8" y="80.4" style="fill: #77909c; font-size: 14px;">Haskell</text><text x="16.8" y="105.60000000000002" style="fill: #77909c; font-size: 14px;">C</text><text x="16.8" y="130.8" style="fill: #77909c; font-size: 14px;">Python</text></g><g transform="translate( 230, 80 )"><g class="arc"><path d="M3.67394039744206e-15,-60A60,60,0,1,1,-31.0788085276891,51.32355853308731L-18.129304974485308,29.938742477634264A35,35,0,1,0,2.1431318985078682e-15,-35Z" style="fill: #f34b7d; stroke-width: 2px;" stroke="#0d1117"></path></g><g class="arc"><path d="M-31.0788085276891,51.32355853308731A60,60,0,0,1,-46.06376306230869,-38.446452795277295L-26.870528453013403,-22.427097463911757A35,35,0,0,0,-18.129304974485308,29.938742477634264Z" style="fill: #3178c6; stroke-width: 2px;" stroke="#0d1117"></path></g><g class="arc"><path d="M-46.06376306230869,-38.446452795277295A60,60,0,0,1,-27.310803971405416,-53.42396453311441L-15.93130231665316,-31.163979310983407A35,35,0,0,0,-26.870528453013403,-22.427097463911757Z" style="fill: #5e5086; stroke-width: 2px;" stroke="#0d1117"></path></g><g class="arc"><path d="M-27.310803971405416,-53.42396453311441A60,60,0,0,1,-9.81807126736122,-59.191261826295076L-5.727208239294044,-34.528236065338795A35,35,0,0,0,-15.93130231665316,-31.163979310983407Z" style="fill: #555555; stroke-width: 2px;" stroke="#0d1117"></path></g><g class="arc"><path d="M-9.81807126736122,-59.191261826295076A60,60,0,0,1,4.226888398968133e-14,-60L2.4656848993980778e-14,-35A35,35,0,0,0,-5.727208239294044,-34.528236065338795Z" style="fill: #3572A5; stroke-width: 2px;" stroke="#0d1117"></path></g></g></g></svg>