<svg xmlns="http://www.w3.org/2000/svg" width="340" height="200" viewBox="0 0 340 200"><style>* {
          font-family: 'Segoe UI', Ubuntu, "Helvetica Neue", Sans-Serif
        }</style><g class="gpsc-root"><rect x="1" y="1" rx="5" ry="5" height="99%" width="99.41176470588235%" stroke="#141321" stroke-width="1" fill="#141321" stroke-opacity="1"></rect><text x="30" y="40" class="gpsc-item" style="--gpsc-i: 0; font-size: 22px; fill: #ff0055;">Top Languages by Commit</text><g transform="translate(0,40)"><g transform="translate(40,0)"><rect y="18" width="14" height="14" class="gpsc-item" style="--gpsc-i: 0; stroke-width: 1px;" fill="#3178c6" stroke="#141321"></rect><rect y="43.2" width="14" height="14" class="gpsc-item" style="--gpsc-i: 1; stroke-width: 1px;" fill="#f34b7d" stroke="#141321"></rect><rect y="68.4" width="14" height="14" class="gpsc-item" style="--gpsc-i: 2; stroke-width: 1px;" fill="#3572A5" stroke="#141321"></rect><rect y="93.60000000000002" width="14" height="14" class="gpsc-item" style="--gpsc-i: 3; stroke-width: 1px;" fill="#dea584" stroke="#141321"></rect><rect y="118.80000000000001" width="14" height="14" class="gpsc-item" style="--gpsc-i: 4; stroke-width: 1px;" fill="#e34c26" stroke="#141321"></rect><text x="16.8" y="30" class="gpsc-item" style="--gpsc-i: 0; fill: #03d8f3; font-size: 14px;">TypeScript</text><text x="16.8" y="55.2" class="gpsc-item" style="--gpsc-i: 1; fill: #03d8f3; font-size: 14px;">C++</text><text x="16.8" y="80.4" class="gpsc-item" style="--gpsc-i: 2; fill: #03d8f3; font-size: 14px;">Python</text><text x="16.8" y="105.60000000000002" class="gpsc-item" style="--gpsc-i: 3; fill: #03d8f3; font-size: 14px;">Rust</text><text x="16.8" y="130.8" class="gpsc-item" style="--gpsc-i: 4; fill: #03d8f3; font-size: 14px;">HTML</text></g><g transform="translate( 230, 80 )"><g class="arc" style="--gpsc-i: 0;"><path d="M3.67394039744206e-15,-60A60,60,0,0,1,14.079115760234433,58.324767461258844L8.21281752680342,34.02278101906766A35,35,0,0,0,2.1431318985078682e-15,-35Z" style="fill: #3178c6; stroke-width: 2px;" stroke="#141321"></path></g><g class="arc" style="--gpsc-i: 1;"><path d="M14.079115760234433,58.324767461258844A60,60,0,0,1,-57.32061483022409,-17.729836871361634L-33.43702531763072,-10.342404841627621A35,35,0,0,0,8.21281752680342,34.02278101906766Z" style="fill: #f34b7d; stroke-width: 2px;" stroke="#141321"></path></g><g class="arc" style="--gpsc-i: 2;"><path d="M-57.32061483022409,-17.729836871361634A60,60,0,0,1,-38.68302729110951,-45.86527444151269L-22.565099253147213,-26.754743424215732A35,35,0,0,0,-33.43702531763072,-10.342404841627621Z" style="fill: #3572A5; stroke-width: 2px;" stroke="#141321"></path></g><g class="arc" style="--gpsc-i: 3;"><path d="M-38.68302729110951,-45.86527444151269A60,60,0,0,1,-11.167636730756175,-58.951538485860276L-6.514454759607769,-34.388397450085165A35,35,0,0,0,-22.565099253147213,-26.754743424215732Z" style="fill: #dea584; stroke-width: 2px;" stroke="#141321"></path></g><g class="arc" style="--gpsc-i: 4;"><path d="M-11.167636730756175,-58.951538485860276A60,60,0,0,1,-1.1021821192326178e-14,-60L-6.429395695523604e-15,-35A35,35,0,0,0,-6.514454759607769,-34.388397450085165Z" style="fill: #e34c26; stroke-width: 2px;" stroke="#141321"></path></g></g></g></g></svg>