<svg xmlns="http://www.w3.org/2000/svg" width="340" height="200" viewBox="0 0 340 200"><style>* {
          font-family: 'Segoe UI', Ubuntu, "Helvetica Neue", Sans-Serif
        }</style><rect x="1" y="1" rx="5" ry="5" height="99%" width="99.41176470588235%" stroke="#000000" stroke-width="1" fill="#291b3e" stroke-opacity="0"></rect><text x="30" y="40" style="font-size: 22px; fill: #ff64da;">Top Languages by Commit</text><g transform="translate(0,40)"><g transform="translate(40,0)"><rect y="18" width="14" height="14" fill="#3178c6" stroke="#291b3e" style="stroke-width: 1px;"></rect><rect y="43.2" width="14" height="14" fill="#f34b7d" stroke="#291b3e" style="stroke-width: 1px;"></rect><rect y="68.4" width="14" height="14" fill="#dea584" stroke="#291b3e" style="stroke-width: 1px;"></rect><rect y="93.60000000000002" width="14" height="14" fill="#3572A5" stroke="#291b3e" style="stroke-width: 1px;"></rect><rect y="118.80000000000001" width="14" height="14" fill="#e34c26" stroke="#291b3e" style="stroke-width: 1px;"></rect><text x="16.8" y="30" style="fill: #ffffff; font-size: 14px;">TypeScript</text><text x="16.8" y="55.2" style="fill: #ffffff; font-size: 14px;">C++</text><text x="16.8" y="80.4" style="fill: #ffffff; font-size: 14px;">Rust</text><text x="16.8" y="105.60000000000002" style="fill: #ffffff; font-size: 14px;">Python</text><text x="16.8" y="130.8" style="fill: #ffffff; font-size: 14px;">HTML</text></g><g transform="translate( 230, 80 )"><g class="arc"><path d="M3.67394039744206e-15,-60A60,60,0,0,1,13.39964867169946,58.484608363868034L7.816461725158018,34.11602154558969A35,35,0,0,0,2.1431318985078682e-15,-35Z" style="fill: #3178c6; stroke-width: 2px;" stroke="#291b3e"></path></g><g class="arc"><path d="M13.39964867169946,58.484608363868034A60,60,0,0,1,-43.59725093151432,-41.22232054621106L-25.431729710050018,-24.04635365195645A35,35,0,0,0,7.816461725158018,34.11602154558969Z" style="fill: #f34b7d; stroke-width: 2px;" stroke="#291b3e"></path></g><g class="arc"><path d="M-43.59725093151432,-41.22232054621106A60,60,0,0,1,-20.432494333829858,-56.4137676041763L-11.918955028067417,-32.908031102436176A35,35,0,0,0,-25.431729710050018,-24.04635365195645Z" style="fill: #dea584; stroke-width: 2px;" stroke="#291b3e"></path></g><g class="arc"><path d="M-20.432494333829858,-56.4137676041763A60,60,0,0,1,-9.839594269353768,-59.18768777891649L-5.739763323789698,-34.52615120436795A35,35,0,0,0,-11.918955028067417,-32.908031102436176Z" style="fill: #3572A5; stroke-width: 2px;" stroke="#291b3e"></path></g><g class="arc"><path d="M-9.839594269353768,-59.18768777891649A60,60,0,0,1,4.226888398968133e-14,-60L2.4656848993980778e-14,-35A35,35,0,0,0,-5.739763323789698,-34.52615120436795Z" style="fill: #e34c26; stroke-width: 2px;" stroke="#291b3e"></path></g></g></g></svg>