<svg xmlns="http://www.w3.org/2000/svg" width="340" height="200" viewBox="0 0 340 200"><style>* {
          font-family: 'Segoe UI', Ubuntu, "Helvetica Neue", Sans-Serif
        }</style><rect x="1" y="1" rx="5" ry="5" height="99%" width="99.41176470588235%" stroke="#000000" stroke-width="1" fill="#291b3e" stroke-opacity="0"></rect><text x="30" y="40" style="font-size: 22px; fill: #ff64da;">Top Languages by Commit</text><g transform="translate(0,40)"><g transform="translate(40,0)"><rect y="18" width="14" height="14" fill="#f34b7d" stroke="#291b3e" style="stroke-width: 1px;"></rect><rect y="43.2" width="14" height="14" fill="#3178c6" stroke="#291b3e" style="stroke-width: 1px;"></rect><rect y="68.4" width="14" height="14" fill="#5e5086" stroke="#291b3e" style="stroke-width: 1px;"></rect><rect y="93.60000000000002" width="14" height="14" fill="#555555" stroke="#291b3e" style="stroke-width: 1px;"></rect><rect y="118.80000000000001" width="14" height="14" fill="#3572A5" stroke="#291b3e" style="stroke-width: 1px;"></rect><text x="16.8" y="30" style="fill: #ffffff; font-size: 14px;">C++</text><text x="16.8" y="55.2" style="fill: #ffffff; font-size: 14px;">TypeScript</text><text x="16.8" y="80.4" style="fill: #ffffff; font-size: 14px;">Haskell</text><text x="16.8" y="105.60000000000002" style="fill: #ffffff; font-size: 14px;">C</text><text x="16.8" y="130.8" style="fill: #ffffff; font-size: 14px;">Python</text></g><g transform="translate( 230, 80 )"><g class="arc"><path d="M3.67394039744206e-15,-60A60,60,0,1,1,-30.991530264320218,51.37630827410358L-18.078392654186793,29.969513159893754A35,35,0,1,0,2.1431318985078682e-15,-35Z" style="fill: #f34b7d; stroke-width: 2px;" stroke="#291b3e"></path></g><g class="arc"><path d="M-30.991530264320218,51.37630827410358A60,60,0,0,1,-46.08577893093427,-38.420059608608824L-26.88337104304499,-22.411701438355145A35,35,0,0,0,-18.078392654186793,29.969513159893754Z" style="fill: #3178c6; stroke-width: 2px;" stroke="#291b3e"></path></g><g class="arc"><path d="M-46.08577893093427,-38.420059608608824A60,60,0,0,1,-27.327325439732476,-53.41551538935995L-15.940939839843946,-31.159050643793307A35,35,0,0,0,-26.88337104304499,-22.411701438355145Z" style="fill: #5e5086; stroke-width: 2px;" stroke="#291b3e"></path></g><g class="arc"><path d="M-27.327325439732476,-53.41551538935995A60,60,0,0,1,-9.824438676300467,-59.190205310470176L-5.730922561175272,-34.527619764440935A35,35,0,0,0,-15.940939839843946,-31.159050643793307Z" style="fill: #555555; stroke-width: 2px;" stroke="#291b3e"></path></g><g class="arc"><path d="M-9.824438676300467,-59.190205310470176A60,60,0,0,1,-6.431252637433369e-14,-60L-3.7515640385027985e-14,-35A35,35,0,0,0,-5.730922561175272,-34.527619764440935Z" style="fill: #3572A5; stroke-width: 2px;" stroke="#291b3e"></path></g></g></g></svg>