<svg xmlns="http://www.w3.org/2000/svg" width="340" height="200" viewBox="0 0 340 200"><style>* {
          font-family: 'Segoe UI', Ubuntu, "Helvetica Neue", Sans-Serif
        }</style><rect x="1" y="1" rx="5" ry="5" height="99%" width="99.41176470588235%" stroke="#000000" stroke-width="1" fill="#002046" stroke-opacity="0"></rect><text x="30" y="40" style="font-size: 22px; fill: #ffff00;">Top Languages by Commit</text><g transform="translate(0,40)"><g transform="translate(40,0)"><rect y="18" width="14" height="14" fill="#f34b7d" stroke="#002046" style="stroke-width: 1px;"></rect><rect y="43.2" width="14" height="14" fill="#3178c6" stroke="#002046" style="stroke-width: 1px;"></rect><rect y="68.4" width="14" height="14" fill="#dea584" stroke="#002046" style="stroke-width: 1px;"></rect><rect y="93.60000000000002" width="14" height="14" fill="#3572A5" stroke="#002046" style="stroke-width: 1px;"></rect><rect y="118.80000000000001" width="14" height="14" fill="#41b883" stroke="#002046" style="stroke-width: 1px;"></rect><text x="16.8" y="30" style="fill: #ffffff; font-size: 14px;">C++</text><text x="16.8" y="55.2" style="fill: #ffffff; font-size: 14px;">TypeScript</text><text x="16.8" y="80.4" style="fill: #ffffff; font-size: 14px;">Rust</text><text x="16.8" y="105.60000000000002" style="fill: #ffffff; font-size: 14px;">Python</text><text x="16.8" y="130.8" style="fill: #ffffff; font-size: 14px;">Vue</text></g><g transform="translate( 230, 80 )"><g class="arc"><path d="M3.67394039744206e-15,-60A60,60,0,1,1,-34.9106691797391,48.79800382621009L-20.364557021514475,28.465502231955885A35,35,0,1,0,2.1431318985078682e-15,-35Z" style="fill: #f34b7d; stroke-width: 2px;" stroke="#002046"></path></g><g class="arc"><path d="M-34.9106691797391,48.79800382621009A60,60,0,0,1,-25.856140255073228,-54.14295901693942L-15.08274848212605,-31.583392759881328A35,35,0,0,0,-20.364557021514475,28.465502231955885Z" style="fill: #3178c6; stroke-width: 2px;" stroke="#002046"></path></g><g class="arc"><path d="M-25.856140255073228,-54.14295901693942A60,60,0,0,1,-14.324750099994754,-58.264925423214095L-8.35610422499694,-33.98787316354156A35,35,0,0,0,-15.08274848212605,-31.583392759881328Z" style="fill: #dea584; stroke-width: 2px;" stroke="#002046"></path></g><g class="arc"><path d="M-14.324750099994754,-58.264925423214095A60,60,0,0,1,-6.578144004778285,-59.63831001505994L-3.837250669454,-34.78901417545163A35,35,0,0,0,-8.35610422499694,-33.98787316354156Z" style="fill: #3572A5; stroke-width: 2px;" stroke="#002046"></path></g><g class="arc"><path d="M-6.578144004778285,-59.63831001505994A60,60,0,0,1,-1.1760323155634122e-13,-60L-6.860188507453237e-14,-35A35,35,0,0,0,-3.837250669454,-34.78901417545163Z" style="fill: #41b883; stroke-width: 2px;" stroke="#002046"></path></g></g></g></svg>