<svg xmlns="http://www.w3.org/2000/svg" width="340" height="200" viewBox="0 0 340 200"><style>* {
          font-family: 'Segoe UI', Ubuntu, "Helvetica Neue", Sans-Serif
        }</style><g class="gpsc-root"><rect x="1" y="1" rx="5" ry="5" height="99%" width="99.41176470588235%" stroke="#000000" stroke-width="1" fill="#002046" stroke-opacity="0"></rect><text x="30" y="40" class="gpsc-item" style="--gpsc-i: 0; font-size: 22px; fill: #ffff00;">Top Languages by Commit</text><g transform="translate(0,40)"><g transform="translate(40,0)"><rect y="18" width="14" height="14" class="gpsc-item" style="--gpsc-i: 0; stroke-width: 1px;" fill="#3178c6" stroke="#002046"></rect><rect y="43.2" width="14" height="14" class="gpsc-item" style="--gpsc-i: 1; stroke-width: 1px;" fill="#f34b7d" stroke="#002046"></rect><rect y="68.4" width="14" height="14" class="gpsc-item" style="--gpsc-i: 2; stroke-width: 1px;" fill="#3572A5" stroke="#002046"></rect><rect y="93.60000000000002" width="14" height="14" class="gpsc-item" style="--gpsc-i: 3; stroke-width: 1px;" fill="#dea584" stroke="#002046"></rect><rect y="118.80000000000001" width="14" height="14" class="gpsc-item" style="--gpsc-i: 4; stroke-width: 1px;" fill="#e34c26" stroke="#002046"></rect><text x="16.8" y="30" class="gpsc-item" style="--gpsc-i: 0; fill: #ffffff; font-size: 14px;">TypeScript</text><text x="16.8" y="55.2" class="gpsc-item" style="--gpsc-i: 1; fill: #ffffff; font-size: 14px;">C++</text><text x="16.8" y="80.4" class="gpsc-item" style="--gpsc-i: 2; fill: #ffffff; font-size: 14px;">Python</text><text x="16.8" y="105.60000000000002" class="gpsc-item" style="--gpsc-i: 3; fill: #ffffff; font-size: 14px;">Rust</text><text x="16.8" y="130.8" class="gpsc-item" style="--gpsc-i: 4; fill: #ffffff; font-size: 14px;">HTML</text></g><g transform="translate( 230, 80 )"><g class="arc" style="--gpsc-i: 0;"><path d="M3.67394039744206e-15,-60A60,60,0,0,1,19.499621549005507,56.74297101355867L11.37477923691988,33.10006642457589A35,35,0,0,0,2.1431318985078682e-15,-35Z" style="fill: #3178c6; stroke-width: 2px;" stroke="#002046"></path></g><g class="arc" style="--gpsc-i: 1;"><path d="M19.499621549005507,56.74297101355867A60,60,0,0,1,-57.424456909391935,-17.39056493220934L-33.49759986381196,-10.144496210455447A35,35,0,0,0,11.37477923691988,33.10006642457589Z" style="fill: #f34b7d; stroke-width: 2px;" stroke="#002046"></path></g><g class="arc" style="--gpsc-i: 2;"><path d="M-57.424456909391935,-17.39056493220934A60,60,0,0,1,-39.87916547323575,-44.82914410468129L-23.26284652605419,-26.150334061064086A35,35,0,0,0,-33.49759986381196,-10.144496210455447Z" style="fill: #3572A5; stroke-width: 2px;" stroke="#002046"></path></g><g class="arc" style="--gpsc-i: 3;"><path d="M-39.87916547323575,-44.82914410468129A60,60,0,0,1,-11.455308887865446,-58.896314810721314L-6.68226351792151,-34.356183639587435A35,35,0,0,0,-23.26284652605419,-26.150334061064086Z" style="fill: #dea584; stroke-width: 2px;" stroke="#002046"></path></g><g class="arc" style="--gpsc-i: 4;"><path d="M-11.455308887865446,-58.896314810721314A60,60,0,0,1,-1.1021821192326178e-14,-60L-6.429395695523604e-15,-35A35,35,0,0,0,-6.68226351792151,-34.356183639587435Z" style="fill: #e34c26; stroke-width: 2px;" stroke="#002046"></path></g></g></g></g></svg>